<svg xmlns="http://www.w3.org/2000/svg" xmlns:xlink="http://www.w3.org/1999/xlink" width="500" zoomAndPan="magnify" viewBox="0 0 375 374.999991" height="500" preserveAspectRatio="xMidYMid meet" version="1.0"><defs><g/><clipPath id="1a214f937d"><path d="M 71.542969 71.542969 L 303.292969 71.542969 L 303.292969 303.292969 L 71.542969 303.292969 Z M 71.542969 71.542969 " clip-rule="nonzero"/></clipPath></defs><g clip-path="url(#1a214f937d)"><path fill="#a6a6a6" d="M 187.5 303.457031 C 123.578125 303.457031 71.542969 251.417969 71.542969 187.5 C 71.542969 123.578125 123.578125 71.542969 187.5 71.542969 C 251.417969 71.542969 303.457031 123.578125 303.457031 187.5 C 303.457031 251.417969 251.417969 303.457031 187.5 303.457031 Z M 187.5 73.253906 C 124.492188 73.253906 73.253906 124.492188 73.253906 187.5 C 73.253906 250.503906 124.492188 301.742188 187.5 301.742188 C 250.503906 301.742188 301.742188 250.503906 301.742188 187.5 C 301.742188 124.492188 250.503906 73.253906 187.5 73.253906 Z M 187.5 73.253906 " fill-opacity="1" fill-rule="nonzero"/></g><path fill="#6f7375" d="M 218.476562 206.128906 C 233.761719 189.84375 226.28125 169.671875 218.476562 163.21875 C 217.621094 183.917969 195.429688 193.996094 185.871094 209.527344 C 182.527344 214.960938 180.082031 220.722656 181.285156 229.882812 C 182.039062 235.644531 190.332031 255.203125 213.382812 251.765625 C 207.1875 246.25 203.070312 241.199219 204.089844 232.039062 C 205.617188 220.335938 211.34375 214.269531 218.476562 206.128906 Z M 207.105469 167.636719 C 194.367188 187.480469 167.019531 199.859375 169.914062 228.011719 C 170.890625 237.679688 178.738281 251.765625 188.417969 253.800781 C 156.828125 250.910156 131.011719 218.179688 153.773438 181.027344 C 162.78125 166.332031 182.8125 157.109375 189.945312 141.84375 C 196.570312 128.613281 190.964844 111.3125 176.191406 107.238281 C 190.457031 105.203125 208.511719 116.5625 212.527344 130.648438 C 216.273438 143.714844 214.238281 156.949219 207.105469 167.636719 " fill-opacity="1" fill-rule="nonzero"/><g fill="#a6a6a6" fill-opacity="1"><g transform="translate(137.268743, 269.914613)"><g><path d="M 16.09375 -0.28125 L 12.25 6.765625 L 10.453125 5.796875 L 11 4.5625 C 10.238281 4.769531 9.53125 4.816406 8.875 4.703125 C 8.21875 4.585938 7.523438 4.332031 6.796875 3.9375 C 5.703125 3.34375 4.84375 2.550781 4.21875 1.5625 C 3.601562 0.582031 3.289062 -0.519531 3.28125 -1.75 C 3.28125 -2.976562 3.644531 -4.257812 4.375 -5.59375 C 4.875 -6.507812 5.492188 -7.265625 6.234375 -7.859375 C 6.972656 -8.453125 7.78125 -8.878906 8.65625 -9.140625 C 9.53125 -9.398438 10.421875 -9.484375 11.328125 -9.390625 C 12.242188 -9.296875 13.125 -9.019531 13.96875 -8.5625 C 14.832031 -8.09375 15.546875 -7.492188 16.109375 -6.765625 C 16.671875 -6.035156 17.070312 -5.238281 17.3125 -4.375 L 15.078125 -3.734375 C 14.929688 -4.296875 14.664062 -4.816406 14.28125 -5.296875 C 13.894531 -5.785156 13.414062 -6.1875 12.84375 -6.5 C 12.09375 -6.90625 11.316406 -7.109375 10.515625 -7.109375 C 9.710938 -7.109375 8.953125 -6.894531 8.234375 -6.46875 C 7.523438 -6.039062 6.925781 -5.375 6.4375 -4.46875 C 5.882812 -3.476562 5.617188 -2.5625 5.640625 -1.71875 C 5.671875 -0.882812 5.914062 -0.15625 6.375 0.46875 C 6.832031 1.101562 7.4375 1.625 8.1875 2.03125 C 8.8125 2.375 9.453125 2.5625 10.109375 2.59375 C 10.773438 2.632812 11.410156 2.539062 12.015625 2.3125 L 12.984375 0.546875 L 10.921875 -0.5625 L 11.984375 -2.515625 Z M 16.09375 -0.28125 "/></g></g></g><g fill="#a6a6a6" fill-opacity="1"><g transform="translate(151.526022, 277.479937)"><g><path d="M 7.6875 -9.609375 L 6.484375 -6.3125 L 11.9375 -4.3125 L 11.140625 -2.140625 L 5.6875 -4.140625 L 4.484375 -0.859375 L 11.0625 1.546875 L 10.265625 3.75 L 1.484375 0.546875 L 6.28125 -12.609375 L 15.0625 -9.40625 L 14.265625 -7.203125 Z M 7.6875 -9.609375 "/></g></g></g><g fill="#a6a6a6" fill-opacity="1"><g transform="translate(163.141331, 281.680995)"><g><path d="M 6.375 -10.515625 L 5.609375 -7.09375 L 11.28125 -5.828125 L 10.78125 -3.578125 L 5.109375 -4.84375 L 4.34375 -1.421875 L 11.171875 0.109375 L 10.65625 2.390625 L 1.546875 0.34375 L 4.609375 -13.3125 L 13.71875 -11.265625 L 13.203125 -8.984375 Z M 6.375 -10.515625 "/></g></g></g><g fill="#a6a6a6" fill-opacity="1"><g transform="translate(175.226315, 284.391822)"><g><path d="M 7.34375 -6.265625 L 12.578125 1.078125 L 9.53125 0.8125 L 5.671875 -4.84375 L 4.234375 -3.5 L 3.90625 0.328125 L 1.578125 0.140625 L 2.765625 -13.8125 L 5.09375 -13.625 L 4.5 -6.578125 L 10.8125 -13.125 L 13.71875 -12.875 Z M 7.34375 -6.265625 "/></g></g></g><g fill="#a6a6a6" fill-opacity="1"><g transform="translate(188.699952, 285.437296)"><g><path d="M 5.46875 -0.046875 C 4.664062 -0.0351562 3.925781 -0.171875 3.25 -0.453125 C 2.582031 -0.742188 2.035156 -1.175781 1.609375 -1.75 C 1.191406 -2.332031 0.957031 -3.054688 0.90625 -3.921875 L 3.25 -4.03125 C 3.289062 -3.457031 3.523438 -3.035156 3.953125 -2.765625 C 4.378906 -2.492188 4.847656 -2.367188 5.359375 -2.390625 C 5.910156 -2.410156 6.378906 -2.59375 6.765625 -2.9375 C 7.160156 -3.289062 7.347656 -3.738281 7.328125 -4.28125 C 7.304688 -4.6875 7.179688 -5.019531 6.953125 -5.28125 C 6.734375 -5.550781 6.460938 -5.757812 6.140625 -5.90625 C 5.828125 -6.050781 5.507812 -6.125 5.1875 -6.125 C 5.132812 -6.125 4.898438 -6.132812 4.484375 -6.15625 C 4.066406 -6.175781 3.597656 -6.289062 3.078125 -6.5 C 2.328125 -6.8125 1.738281 -7.257812 1.3125 -7.84375 C 0.894531 -8.425781 0.664062 -9.128906 0.625 -9.953125 C 0.582031 -10.847656 0.753906 -11.617188 1.140625 -12.265625 C 1.523438 -12.921875 2.046875 -13.4375 2.703125 -13.8125 C 3.367188 -14.195312 4.070312 -14.40625 4.8125 -14.4375 C 5.632812 -14.46875 6.375 -14.328125 7.03125 -14.015625 C 7.6875 -13.710938 8.21875 -13.265625 8.625 -12.671875 C 9.03125 -12.085938 9.253906 -11.398438 9.296875 -10.609375 L 6.984375 -10.515625 C 6.953125 -11.097656 6.734375 -11.507812 6.328125 -11.75 C 5.929688 -12 5.460938 -12.113281 4.921875 -12.09375 C 4.378906 -12.0625 3.910156 -11.878906 3.515625 -11.546875 C 3.117188 -11.210938 2.9375 -10.71875 2.96875 -10.0625 C 3 -9.488281 3.226562 -9.054688 3.65625 -8.765625 C 4.09375 -8.484375 4.566406 -8.351562 5.078125 -8.375 C 5.140625 -8.375 5.378906 -8.363281 5.796875 -8.34375 C 6.222656 -8.320312 6.6875 -8.210938 7.1875 -8.015625 C 7.9375 -7.722656 8.519531 -7.25 8.9375 -6.59375 C 9.351562 -5.945312 9.582031 -5.207031 9.625 -4.375 C 9.65625 -3.476562 9.476562 -2.71875 9.09375 -2.09375 C 8.71875 -1.46875 8.207031 -0.976562 7.5625 -0.625 C 6.925781 -0.269531 6.226562 -0.078125 5.46875 -0.046875 Z M 5.46875 -0.046875 "/></g></g></g><g fill="#a6a6a6" fill-opacity="1"><g transform="translate(200.036499, 284.844003)"><g><path d="M 6.65625 -13.046875 L 3.765625 -12.59375 L 5.59375 -0.875 L 3.296875 -0.515625 L 1.46875 -12.234375 L -1.421875 -11.78125 L -1.75 -13.890625 L 6.328125 -15.15625 Z M 6.65625 -13.046875 "/></g></g></g><g fill="#a6a6a6" fill-opacity="1"><g transform="translate(209.452451, 283.465786)"><g><path d="M 8.578125 -16.953125 L 5.515625 -8.4375 L 7.3125 -2.0625 L 5.0625 -1.421875 L 3.265625 -7.796875 L -3.796875 -13.46875 L -1.046875 -14.25 L 3.765625 -10.40625 L 5.828125 -16.171875 Z M 8.578125 -16.953125 "/></g></g></g><g fill="#a6a6a6" fill-opacity="1"><g transform="translate(222.383663, 279.693419)"><g><path d="M 2.703125 -3.6875 L 7.46875 -5.703125 L 8.375 -3.546875 L 1.453125 -0.609375 L -4 -13.5 L -1.84375 -14.421875 Z M 2.703125 -3.6875 "/></g></g></g><g fill="#a6a6a6" fill-opacity="1"><g transform="translate(232.125225, 275.593584)"><g><path d="M -2.390625 -12.0625 L -0.640625 -9.03125 L 4.40625 -11.921875 L 5.546875 -9.921875 L 0.5 -7.03125 L 2.234375 -3.984375 L 8.3125 -7.453125 L 9.484375 -5.421875 L 1.375 -0.78125 L -5.578125 -12.9375 L 2.53125 -17.578125 L 3.6875 -15.53125 Z M -2.390625 -12.0625 "/></g></g></g><g fill="#a6a6a6" fill-opacity="1"><g transform="translate(136.396649, 113.94885)"><g><path d="M 0.59375 -0.40625 L -4.234375 -7.34375 L -3.03125 -8.1875 L 3.03125 -3.578125 L 0.8125 -10.875 L 2.015625 -11.703125 L 6.84375 -4.765625 L 6.015625 -4.203125 L 2.0625 -9.875 L 2.046875 -9.859375 L 4.140625 -2.890625 L 3.296875 -2.296875 L -2.53125 -6.65625 L -2.546875 -6.65625 L 1.40625 -0.984375 Z M 0.59375 -0.40625 "/></g></g></g><g fill="#a6a6a6" fill-opacity="1"><g transform="translate(149.947084, 105.325338)"><g><path d="M 3.65625 -1.4375 C 3.019531 -1.144531 2.382812 -1.050781 1.75 -1.15625 C 1.125 -1.269531 0.539062 -1.566406 0 -2.046875 C -0.539062 -2.535156 -1 -3.1875 -1.375 -4 C -1.75 -4.832031 -1.941406 -5.609375 -1.953125 -6.328125 C -1.972656 -7.054688 -1.816406 -7.695312 -1.484375 -8.25 C -1.160156 -8.800781 -0.679688 -9.222656 -0.046875 -9.515625 C 0.597656 -9.804688 1.238281 -9.894531 1.875 -9.78125 C 2.507812 -9.675781 3.09375 -9.378906 3.625 -8.890625 C 4.164062 -8.410156 4.625 -7.757812 5 -6.9375 C 5.375 -6.113281 5.570312 -5.335938 5.59375 -4.609375 C 5.613281 -3.890625 5.457031 -3.253906 5.125 -2.703125 C 4.789062 -2.148438 4.300781 -1.726562 3.65625 -1.4375 Z M 3.28125 -2.25 C 3.75 -2.457031 4.09375 -2.769531 4.3125 -3.1875 C 4.53125 -3.613281 4.625 -4.113281 4.59375 -4.6875 C 4.5625 -5.257812 4.394531 -5.867188 4.09375 -6.515625 C 3.789062 -7.179688 3.429688 -7.710938 3.015625 -8.109375 C 2.609375 -8.503906 2.171875 -8.753906 1.703125 -8.859375 C 1.242188 -8.972656 0.78125 -8.925781 0.3125 -8.71875 C -0.132812 -8.507812 -0.46875 -8.191406 -0.6875 -7.765625 C -0.90625 -7.347656 -1 -6.851562 -0.96875 -6.28125 C -0.9375 -5.707031 -0.769531 -5.085938 -0.46875 -4.421875 C -0.164062 -3.773438 0.1875 -3.253906 0.59375 -2.859375 C 1.007812 -2.460938 1.445312 -2.207031 1.90625 -2.09375 C 2.375 -1.988281 2.832031 -2.039062 3.28125 -2.25 Z M 3.28125 -2.25 "/></g></g></g><g fill="#a6a6a6" fill-opacity="1"><g transform="translate(163.727704, 99.690208)"><g><path d="M 0.6875 -0.1875 L -1.5 -8.359375 L 0.734375 -8.953125 C 1.929688 -9.273438 2.925781 -9.15625 3.71875 -8.59375 C 4.519531 -8.039062 5.09375 -7.117188 5.4375 -5.828125 C 5.78125 -4.546875 5.742188 -3.460938 5.328125 -2.578125 C 4.921875 -1.703125 4.117188 -1.101562 2.921875 -0.78125 Z M 1.421875 -1.296875 L 2.6875 -1.640625 C 3.582031 -1.878906 4.171875 -2.34375 4.453125 -3.03125 C 4.742188 -3.71875 4.753906 -4.566406 4.484375 -5.578125 C 4.203125 -6.578125 3.769531 -7.304688 3.1875 -7.765625 C 2.601562 -8.234375 1.863281 -8.347656 0.96875 -8.109375 L -0.296875 -7.765625 Z M 1.421875 -1.296875 "/></g></g></g><g fill="#a6a6a6" fill-opacity="1"><g transform="translate(177.620738, 96.589334)"><g><path d="M 0.125 -0.015625 L 1.75 -8.671875 L 3.046875 -8.796875 L 6.390625 -0.640625 L 5.375 -0.546875 L 4.609375 -2.5 L 1.484375 -2.1875 L 1.125 -0.109375 Z M 1.625 -3.09375 L 4.28125 -3.359375 L 2.515625 -7.875 L 2.5 -7.875 Z M 1.625 -3.09375 "/></g></g></g><g fill="#a6a6a6" fill-opacity="1"><g transform="translate(191.255995, 95.84054)"><g/></g></g><g fill="#a6a6a6" fill-opacity="1"><g transform="translate(200.399158, 96.426577)"><g><path d="M 3.703125 0.875 C 3.015625 0.75 2.445312 0.460938 2 0.015625 C 1.5625 -0.421875 1.269531 -0.984375 1.125 -1.671875 C 0.976562 -2.367188 0.984375 -3.171875 1.140625 -4.078125 C 1.304688 -4.992188 1.570312 -5.757812 1.9375 -6.375 C 2.3125 -6.988281 2.78125 -7.425781 3.34375 -7.6875 C 3.90625 -7.945312 4.535156 -8.015625 5.234375 -7.890625 C 5.910156 -7.773438 6.46875 -7.460938 6.90625 -6.953125 C 7.351562 -6.441406 7.625 -5.800781 7.71875 -5.03125 L 6.71875 -4.921875 C 6.65625 -5.492188 6.476562 -5.96875 6.1875 -6.34375 C 5.894531 -6.71875 5.519531 -6.941406 5.0625 -7.015625 C 4.332031 -7.148438 3.707031 -6.9375 3.1875 -6.375 C 2.675781 -5.820312 2.320312 -5 2.125 -3.90625 C 1.9375 -2.832031 2.007812 -1.941406 2.34375 -1.234375 C 2.6875 -0.523438 3.257812 -0.101562 4.0625 0.03125 C 4.832031 0.164062 5.476562 0 6 -0.46875 C 6.519531 -0.945312 6.859375 -1.660156 7.015625 -2.609375 L 3.734375 -3.1875 L 3.890625 -4.078125 L 8.15625 -3.328125 L 7.359375 1.28125 L 6.515625 1.140625 L 6.6875 -0.3125 L 6.671875 -0.328125 C 6.304688 0.160156 5.867188 0.503906 5.359375 0.703125 C 4.847656 0.910156 4.296875 0.96875 3.703125 0.875 Z M 3.703125 0.875 "/></g></g></g><g fill="#a6a6a6" fill-opacity="1"><g transform="translate(215.041465, 99.645404)"><g><path d="M 0.671875 0.234375 L 3.421875 -7.765625 L 7.515625 -6.359375 L 7.234375 -5.53125 L 4.0625 -6.625 L 3.15625 -3.984375 L 5.875 -3.046875 L 5.59375 -2.25 L 2.875 -3.1875 L 1.890625 -0.296875 L 5.171875 0.828125 L 4.875 1.671875 Z M 0.671875 0.234375 "/></g></g></g><g fill="#a6a6a6" fill-opacity="1"><g transform="translate(226.72773, 104.214806)"><g><path d="M 0.640625 0.328125 L 4.515625 -7.1875 L 8.359375 -5.203125 L 7.96875 -4.421875 L 4.984375 -5.953125 L 3.703125 -3.484375 L 6.25 -2.171875 L 5.859375 -1.421875 L 3.3125 -2.734375 L 1.90625 -0.015625 L 4.984375 1.578125 L 4.578125 2.375 Z M 0.640625 0.328125 "/></g></g></g><g fill="#a6a6a6" fill-opacity="1"><g transform="translate(237.628318, 110.413077)"><g><path d="M 0.578125 0.421875 L 5.53125 -6.421875 L 6.34375 -5.84375 L 4.078125 -2.703125 L 4.09375 -2.6875 L 8.703125 -4.140625 L 9.6875 -3.421875 L 5.484375 -2.171875 L 4.828125 3.484375 L 3.90625 2.828125 L 4.515625 -1.875 L 3.171875 -1.46875 L 1.390625 1 Z M 0.578125 0.421875 "/></g></g></g></svg>